<svg width="24" height="24" viewBox="0 0 24 24" fill="none" xmlns="http://www.w3.org/2000/svg">
<path d="M20.222 9.15942H18.888C18.903 9.06942 18.916 8.97742 18.916 8.88242V6.56942C18.916 5.58942 18.119 4.79242 17.138 4.79242H3.5V3.35742C3.5 2.94342 3.164 2.60742 2.75 2.60742C2.336 2.60742 2 2.94342 2 3.35742V20.8294C2 21.2444 2.336 21.5794 2.75 21.5794C3.164 21.5794 3.5 21.2444 3.5 20.8294V19.3954H14.056C15.036 19.3954 15.834 18.5984 15.834 17.6184V15.3054C15.834 15.2104 15.82 15.1184 15.806 15.0274H20.223C21.203 15.0274 22.001 14.2294 22.001 13.2494V10.9394C22.001 9.95642 21.204 9.15942 20.223 9.15942H20.222ZM17.14 6.29242C17.292 6.29242 17.417 6.41642 17.417 6.56942V8.87942C17.417 9.03342 17.292 9.15942 17.139 9.15942H3.5V6.28942H17.14V6.29242ZM14.333 15.3064V17.6184C14.333 17.7714 14.208 17.8954 14.055 17.8954H3.5V15.0274H14.056C14.209 15.0274 14.333 15.1534 14.333 15.3074V15.3064ZM20.5 13.2494C20.5 13.4024 20.375 13.5264 20.222 13.5264H3.5V10.6594H20.222C20.375 10.6594 20.5 10.7834 20.5 10.9364V13.2494Z" fill="#1DA1F2"/>
</svg>
