<svg width="24" height="24" viewBox="0 0 24 24" fill="none" xmlns="http://www.w3.org/2000/svg">
<path d="M12 22.75C6.072 22.75 1.25 17.928 1.25 12C1.25 6.072 6.072 1.25 12 1.25C17.928 1.25 22.75 6.072 22.75 12C22.75 17.928 17.928 22.75 12 22.75ZM12 2.75C6.9 2.75 2.75 6.9 2.75 12C2.75 17.1 6.9 21.25 12 21.25C17.1 21.25 21.25 17.1 21.25 12C21.25 6.9 17.1 2.75 12 2.75Z" fill="#1DA1F2"/>
<path d="M11.9998 17.1153C10.1078 17.1153 8.36676 16.1653 7.34376 14.5713C7.11976 14.2233 7.22076 13.7613 7.56976 13.5363C7.91776 13.3103 8.38176 13.4123 8.60576 13.7623C9.35276 14.9243 10.6218 15.6173 12.0008 15.6173C13.3798 15.6173 14.6488 14.9243 15.3968 13.7633C15.6208 13.4133 16.0848 13.3133 16.4328 13.5383C16.7828 13.7623 16.8828 14.2263 16.6588 14.5743C15.6338 16.1683 13.8928 17.1193 12.0008 17.1193L11.9998 17.1153Z" fill="#1DA1F2"/>
<path d="M14.7378 10.9365C15.554 10.9365 16.2158 10.2747 16.2158 9.45847C16.2158 8.64219 15.554 7.98047 14.7378 7.98047C13.9215 7.98047 13.2598 8.64219 13.2598 9.45847C13.2598 10.2747 13.9215 10.9365 14.7378 10.9365Z" fill="#1DA1F2"/>
<path d="M9.2612 10.9365C10.0775 10.9365 10.7392 10.2747 10.7392 9.45847C10.7392 8.64219 10.0775 7.98047 9.2612 7.98047C8.44493 7.98047 7.7832 8.64219 7.7832 9.45847C7.7832 10.2747 8.44493 10.9365 9.2612 10.9365Z" fill="#1DA1F2"/>
</svg>
