<svg width="18" height="18" viewBox="0 0 18 18" fill="none" xmlns="http://www.w3.org/2000/svg">
<path d="M10.5348 1.68133L7.42377 1.67383H7.42227C4.14177 1.67383 1.57227 4.24408 1.57227 7.52533C1.57227 10.5988 3.96177 12.9298 7.17102 13.0528V15.9238C7.17102 16.0048 7.20402 16.1383 7.26102 16.2261C7.36752 16.3948 7.54902 16.4863 7.73502 16.4863C7.83852 16.4863 7.94277 16.4578 8.03652 16.3978C8.23452 16.2718 12.8913 13.2928 14.1025 12.2683C15.529 11.0608 16.3825 9.29083 16.3848 7.53433V7.52158C16.3803 4.24633 13.8123 1.68133 10.5348 1.68058V1.68133ZM13.375 11.4103C12.5245 12.1303 9.72852 13.9641 8.29602 14.8926V12.5023C8.29602 12.1918 8.04477 11.9398 7.73352 11.9398H7.43652C4.69152 11.9398 2.69802 10.0828 2.69802 7.52533C2.69802 4.87483 4.77402 2.79883 7.42302 2.79883L10.5333 2.80633H10.5348C13.1838 2.80633 15.2598 4.88083 15.2613 7.52833C15.259 8.96083 14.5548 10.4113 13.3758 11.4103H13.375Z" fill="#5B7083"/>
</svg>
