<svg width="30" height="30" viewBox="0 0 30 30" fill="none" xmlns="http://www.w3.org/2000/svg">
<path d="M26.25 9.17204H21.3375L21.8025 3.83204C21.8475 3.31704 21.465 2.86329 20.95 2.81704C20.4288 2.77954 19.98 3.15454 19.935 3.67079L19.4562 9.17079H11.5562L12.0187 3.83329C12.065 3.31704 11.6813 2.86329 11.1688 2.81704C10.6438 2.77954 10.1975 3.15454 10.1525 3.67079L9.675 9.17079H4.7275C4.21 9.17079 3.79 9.59204 3.79 10.1083C3.79 10.6245 4.21 11.0458 4.7275 11.0458H9.5125L8.825 18.9545H3.75C3.2325 18.9545 2.8125 19.3745 2.8125 19.892C2.8125 20.4095 3.2325 20.8295 3.75 20.8295H8.6625L8.1975 26.1695C8.1525 26.6845 8.535 27.1383 9.05 27.1845L9.1325 27.1883C9.61375 27.1883 10.0225 26.8195 10.065 26.3308L10.5438 20.8308H18.4438L17.9813 26.1683C17.9363 26.6845 18.3188 27.1383 18.8337 27.1845L18.9163 27.1883C19.3975 27.1883 19.8062 26.8195 19.8487 26.3308L20.3263 20.8308H25.2725C25.7887 20.8308 26.21 20.4095 26.21 19.8933C26.21 19.377 25.7887 18.9558 25.2725 18.9558H20.4875L21.175 11.047H26.25C26.7675 11.047 27.1875 10.627 27.1875 10.1095C27.1875 9.59204 26.7675 9.17204 26.25 9.17204ZM18.6063 18.9545H10.7062L11.3937 11.047H19.2938L18.6063 18.9545Z" fill="#0F1419"/>
</svg>
