<svg width="30" height="30" viewBox="0 0 30 30" fill="none" xmlns="http://www.w3.org/2000/svg">
<path d="M28.2251 9.18695L15.5938 2.3707C15.2226 2.1707 14.7763 2.1707 14.4063 2.3707L1.78132 9.18695C1.17382 9.51695 0.947569 10.2745 1.27507 10.882C1.50007 11.3007 1.93132 11.5382 2.37507 11.5382C2.57507 11.5382 2.78007 11.4907 2.96882 11.3882L3.88632 10.8932L5.87382 24.9557C6.14382 26.4732 7.51132 27.5332 9.19882 27.5332H20.8013C22.4888 27.5332 23.8563 26.4732 24.1288 24.9232L26.1138 10.892L27.0351 11.3895C27.6413 11.7182 28.4001 11.492 28.7276 10.8845C29.0563 10.277 28.8276 9.5182 28.2226 9.1907L28.2251 9.18695ZM15.0001 19.2932C12.7563 19.2932 10.9376 17.4745 10.9376 15.2307C10.9376 12.987 12.7563 11.1682 15.0001 11.1682C17.2438 11.1682 19.0626 12.987 19.0626 15.2307C19.0626 17.4745 17.2438 19.2932 15.0001 19.2932Z" fill="#1DA1F2"/>
</svg>
