<svg width="30" height="30" viewBox="0 0 30 30" fill="none" xmlns="http://www.w3.org/2000/svg">
<path d="M24.6875 27.5H5.3125C3.7625 27.5 2.5 26.2375 2.5 24.6875V5.3125C2.5 3.7625 3.7625 2.5 5.3125 2.5H24.6875C26.2375 2.5 27.5 3.7625 27.5 5.3125V24.6875C27.5 26.2375 26.2375 27.5 24.6875 27.5ZM5.3125 4.375C4.795 4.375 4.375 4.79625 4.375 5.3125V24.6875C4.375 25.2038 4.795 25.625 5.3125 25.625H24.6875C25.205 25.625 25.625 25.2038 25.625 24.6875V5.3125C25.625 4.79625 25.205 4.375 24.6875 4.375H5.3125Z" fill="#0F1419"/>
<path d="M21.25 10.8008H8.75C8.2325 10.8008 7.8125 10.3795 7.8125 9.86328C7.8125 9.34703 8.2325 8.92578 8.75 8.92578H21.25C21.7675 8.92578 22.1875 9.34453 22.1875 9.86328C22.1875 10.382 21.7675 10.8008 21.25 10.8008ZM21.25 15.9383H8.75C8.2325 15.9383 7.8125 15.5183 7.8125 15.0008C7.8125 14.4833 8.2325 14.0633 8.75 14.0633H21.25C21.7675 14.0633 22.1875 14.4833 22.1875 15.0008C22.1875 15.5183 21.7675 15.9383 21.25 15.9383ZM15 21.0758H8.75C8.2325 21.0758 7.8125 20.657 7.8125 20.1383C7.8125 19.6195 8.2325 19.2008 8.75 19.2008H15C15.5175 19.2008 15.9375 19.622 15.9375 20.1383C15.9375 20.6545 15.5175 21.0758 15 21.0758Z" fill="#0F1419"/>
</svg>
