<svg width="30" height="30" viewBox="0 0 30 30" fill="none" xmlns="http://www.w3.org/2000/svg">
<path d="M27.1222 20.5846C27.0972 20.5646 24.4472 18.5346 24.4935 13.0471C24.5185 9.88211 23.4785 7.06961 21.5597 5.12836C19.841 3.38711 17.5135 2.42461 15.0072 2.41211H14.991C12.486 2.42461 10.1585 3.38711 8.43846 5.12961C6.52096 7.07086 5.47846 9.88211 5.50596 13.0471C5.55221 18.4596 2.98096 20.5059 2.87846 20.5846C2.55346 20.8259 2.42096 21.2471 2.54721 21.6321C2.67471 22.0171 3.03471 22.2759 3.43721 22.2759H9.58721C9.71471 25.1634 12.0835 27.4759 14.9997 27.4759C17.916 27.4759 20.2822 25.1634 20.4085 22.2759H26.561C26.9635 22.2759 27.3235 22.0184 27.4485 21.6334C27.5772 21.2496 27.4447 20.8271 27.1197 20.5859L27.1222 20.5846ZM15.001 25.5971C13.1197 25.5971 11.5885 24.1259 11.466 22.2746H18.536C18.411 24.1246 16.8822 25.5996 15.001 25.5996V25.5971ZM5.47596 20.3996C6.40096 18.9846 7.41096 16.6146 7.38096 13.0296C7.35846 10.3296 8.18596 8.05211 9.77221 6.44586C11.1385 5.06211 12.9972 4.29586 15.001 4.28711C17.0047 4.29711 18.8597 5.06211 20.226 6.44711C21.8135 8.05336 22.6422 10.3296 22.6197 13.0309C22.5897 16.6159 23.601 18.9871 24.526 20.4009H5.47596V20.3996Z" fill="#0F1419"/>
</svg>
