<svg width="18" height="18" viewBox="0 0 18 18" fill="none" xmlns="http://www.w3.org/2000/svg">
<path d="M17.8267 11.7517C17.6077 11.532 17.2514 11.532 17.0317 11.7517L15.3667 13.4167V5.7367C15.3667 4.1857 14.1044 2.9242 12.5542 2.9242H8.16669C7.85619 2.9242 7.60419 3.1762 7.60419 3.4867C7.60419 3.7972 7.85619 4.0492 8.16669 4.0492H12.5542C13.4842 4.0492 14.2417 4.8067 14.2417 5.7367V13.4167L12.5767 11.7517C12.3569 11.532 12.0007 11.532 11.7817 11.7517C11.5627 11.9715 11.5612 12.3277 11.7817 12.5467L14.4067 15.1717C14.5154 15.282 14.6594 15.3367 14.8042 15.3367C14.9489 15.3367 15.0914 15.2827 15.2017 15.1717L17.8267 12.5467C18.0472 12.3277 18.0472 11.9715 17.8267 11.7517ZM9.83169 14.2117H5.44419C4.51419 14.2117 3.75669 13.4542 3.75669 12.5242V4.8442L5.42169 6.5092C5.53269 6.61945 5.67669 6.6742 5.82069 6.6742C5.96469 6.6742 6.10869 6.61945 6.21819 6.5092C6.43794 6.28945 6.43794 5.9332 6.21819 5.7142L3.59319 3.0892C3.37344 2.8687 3.01719 2.8687 2.79819 3.0892L0.173187 5.7142C-0.0473125 5.9332 -0.0473125 6.28945 0.173187 6.5092C0.393687 6.72895 0.748437 6.72895 0.968187 6.5092L2.63319 4.8442V12.5242C2.63319 14.0752 3.89544 15.3367 5.44569 15.3367H9.83319C10.1437 15.3367 10.3957 15.0847 10.3957 14.7742C10.3957 14.4637 10.1429 14.2117 9.83319 14.2117H9.83169Z" fill="#5B7083"/>
</svg>
