<svg width="24" height="24" viewBox="0 0 24 24" fill="none" xmlns="http://www.w3.org/2000/svg">
<g clip-path="url(#clip0_46_158)">
<path d="M-37.9 17.9996C-38 17.8996 -38 17.8996 -38 17.7996C-37.9 17.7996 -37.9 17.8996 -37.9 17.9996ZM18 2.19961H16.7V1.89961C16.7 1.49961 16.4 1.09961 15.9 1.09961C15.5 1.09961 15.1 1.39961 15.1 1.89961V2.19961H7.7V1.89961C7.7 1.49961 7.4 1.09961 6.9 1.09961C6.5 1.09961 6.1 1.39961 6.1 1.89961V2.19961H4.8C3.4 2.19961 2.3 3.29961 2.3 4.69961V17.7996C2.3 19.1996 3.4 20.2996 4.8 20.2996H7.7C8.1 20.2996 8.5 19.9996 8.5 19.4996C8.5 19.0996 8.2 18.6996 7.7 18.6996H4.8C4.2 18.6996 3.8 18.1996 3.8 17.6996V7.89961C3.8 7.59961 4.2 7.19961 4.8 7.19961H18C18.6 7.19961 19 7.59961 19 7.89961V9.69961C19 10.0996 19.3 10.4996 19.8 10.4996C20.2 10.4996 20.6 10.1996 20.6 9.69961V4.69961C20.5 3.29961 19.4 2.19961 18 2.19961ZM19 5.89961C18.7 5.79961 18.3 5.69961 18 5.69961H4.8C4.4 5.69961 4.1 5.79961 3.8 5.89961V4.69961C3.8 4.09961 4.3 3.69961 4.8 3.69961H6.1V4.19961C6.1 4.59961 6.4 4.99961 6.9 4.99961C7.3 4.99961 7.7 4.69961 7.7 4.19961V3.69961H15.2V4.19961C15.2 4.59961 15.5 4.99961 16 4.99961C16.4 4.99961 16.8 4.69961 16.8 4.19961V3.69961H18C18.6 3.69961 19 4.19961 19 4.69961V5.89961Z" fill="#1DA1F2"/>
<path d="M15.5008 10.4004C12.1008 10.4004 9.30078 13.2004 9.30078 16.6004C9.30078 20.0004 12.1008 22.8004 15.5008 22.8004C18.9008 22.8004 21.7008 20.0004 21.7008 16.6004C21.7008 13.2004 18.9008 10.4004 15.5008 10.4004ZM15.5008 21.4004C12.9008 21.4004 10.8008 19.3004 10.8008 16.7004C10.8008 14.1004 12.9008 12.0004 15.5008 12.0004C18.1008 12.0004 20.2008 14.1004 20.2008 16.7004C20.2008 19.2004 18.1008 21.4004 15.5008 21.4004Z" fill="#1DA1F2"/>
<path d="M18.9008 18.6992C18.8008 18.8992 18.5008 19.0992 18.3008 19.0992C18.2008 19.0992 18.0008 19.0992 17.9008 18.9992L14.8008 16.9992V13.9992C14.8008 13.5992 15.1008 13.1992 15.6008 13.1992C16.0008 13.1992 16.4008 13.4992 16.4008 13.9992V16.1992L18.8008 17.6992C19.0008 17.8992 19.1008 18.2992 18.9008 18.6992Z" fill="#1DA1F2"/>
</g>
<defs>
<clipPath id="clip0_46_158">
<rect width="24" height="24" fill="white"/>
</clipPath>
</defs>
</svg>
