<svg width="19" height="19" viewBox="0 0 19 19" fill="none" xmlns="http://www.w3.org/2000/svg">
<path d="M17.0443 16.2061L14.1468 13.3086C15.1957 12.0657 15.833 10.4617 15.833 8.70898C15.833 4.7744 12.6426 1.58398 8.70801 1.58398C4.77342 1.58398 1.58301 4.7744 1.58301 8.70898C1.58301 12.6436 4.77342 15.834 8.70801 15.834C10.4615 15.834 12.0647 15.1975 13.306 14.1477L16.2035 17.0452C16.3199 17.1608 16.4727 17.2194 16.6231 17.2194C16.7735 17.2194 16.9279 17.1616 17.0427 17.0452C17.2762 16.8133 17.2762 16.438 17.0443 16.2061ZM2.77051 8.70898C2.77051 5.43544 5.43447 2.77148 8.70801 2.77148C11.9816 2.77148 14.6455 5.43544 14.6455 8.70898C14.6455 11.9825 11.9816 14.6465 8.70801 14.6465C5.43447 14.6465 2.77051 11.9825 2.77051 8.70898Z" fill="#5B7083"/>
</svg>
