<svg width="24" height="24" viewBox="0 0 24 24" fill="none" xmlns="http://www.w3.org/2000/svg">
<path d="M22.772 10.5068L17.154 8.31478L14.994 1.81478C14.892 1.50778 14.604 1.30078 14.282 1.30078C13.96 1.30078 13.672 1.50778 13.57 1.81378L11.41 8.31378L5.79 10.5058C5.503 10.6178 5.313 10.8958 5.313 11.2058C5.313 11.5158 5.503 11.7908 5.791 11.9038L11.411 14.0958L13.571 20.5958C13.673 20.9018 13.961 21.1088 14.283 21.1088C14.605 21.1088 14.893 20.9018 14.995 20.5958L17.155 14.0958L22.775 11.9038C23.062 11.7918 23.252 11.5138 23.252 11.2038C23.252 10.8938 23.062 10.6188 22.774 10.5068H22.772ZM16.282 12.8268C16.074 12.9068 15.912 13.0768 15.842 13.2868L14.282 17.9818L12.722 13.2888C12.652 13.0788 12.492 12.9088 12.284 12.8268L8.129 11.2068L12.283 9.58478C12.491 9.50478 12.653 9.33478 12.723 9.12278L14.283 4.42978L15.843 9.12378C15.913 9.33578 16.073 9.50578 16.281 9.58678L20.436 11.2068L16.281 12.8288L16.282 12.8268ZM6.663 3.81278H4.783V2.05078C4.783 1.63678 4.446 1.30078 4.033 1.30078C3.62 1.30078 3.283 1.63678 3.283 2.05078V3.81278H1.5C1.086 3.81278 0.75 4.14878 0.75 4.56278C0.75 4.97678 1.086 5.31278 1.5 5.31278H3.282V7.07478C3.282 7.48878 3.618 7.82478 4.032 7.82478C4.446 7.82478 4.782 7.48878 4.782 7.07478V5.31278H6.662C7.077 5.31278 7.412 4.97678 7.412 4.56278C7.412 4.14878 7.077 3.81278 6.662 3.81278H6.663ZM9.198 19.4348H8.098V18.4188C8.098 18.0048 7.763 17.6688 7.348 17.6688C6.933 17.6688 6.598 18.0048 6.598 18.4188V19.4348H5.57C5.156 19.4348 4.82 19.7708 4.82 20.1848C4.82 20.5988 5.156 20.9348 5.57 20.9348H6.6V21.9508C6.6 22.3648 6.935 22.7008 7.35 22.7008C7.765 22.7008 8.1 22.3648 8.1 21.9508V20.9348H9.198C9.612 20.9348 9.948 20.5988 9.948 20.1848C9.948 19.7708 9.612 19.4348 9.198 19.4348Z" fill="#1DA1F2"/>
</svg>
