<svg width="29" height="24" viewBox="0 0 29 24" fill="none" xmlns="http://www.w3.org/2000/svg">
<path d="M28.5544 3.1707C27.5106 3.6332 26.3894 3.9457 25.2106 4.08695C26.4131 3.36695 27.3356 2.22445 27.7706 0.864453C26.6456 1.53195 25.3994 2.01695 24.0731 2.27695C23.0106 1.14695 21.4981 0.439453 19.8231 0.439453C16.6081 0.439453 14.0006 3.04695 14.0006 6.26445C14.0006 6.71945 14.0531 7.16195 14.1506 7.58945C9.30937 7.3457 5.02063 5.02695 2.14812 1.50445C1.64812 2.36695 1.36063 3.36695 1.36063 4.43195C1.36063 6.45195 2.38937 8.2357 3.95062 9.27945C2.99563 9.2482 2.09813 8.98695 1.31313 8.5507V8.6257C1.31313 11.447 3.31938 13.8007 5.98438 14.3357C5.49438 14.4682 4.98063 14.5382 4.45062 14.5382C4.07563 14.5382 3.70937 14.5032 3.35437 14.4357C4.09562 16.7482 6.24563 18.4332 8.79438 18.4782C6.80063 20.0407 4.28937 20.972 1.56187 20.972C1.09188 20.972 0.628125 20.9445 0.171875 20.8907C2.74938 22.5445 5.80937 23.507 9.09688 23.507C19.8094 23.507 25.6656 14.6345 25.6656 6.93945C25.6656 6.68945 25.6594 6.43695 25.6481 6.18695C26.7856 5.36445 27.7731 4.3407 28.5519 3.17445L28.5544 3.1707Z" fill="#1DA1F2"/>
</svg>
